<?xml version="1.0" encoding="UTF-8"?>
<svg xmlns="http://www.w3.org/2000/svg" xmlns:xlink="http://www.w3.org/1999/xlink" width="512" height="512" viewBox="0 0 512 512" version="1.1">
<defs>
<filter id="alpha" filterUnits="objectBoundingBox" x="0%" y="0%" width="100%" height="100%">
  <feColorMatrix type="matrix" in="SourceGraphic" values="0 0 0 0 1 0 0 0 0 1 0 0 0 0 1 0 0 0 1 0"/>
</filter>
<mask id="mask0">
  <g filter="url(#alpha)">
<rect x="0" y="0" width="512" height="512" style="fill:rgb(0%,0%,0%);fill-opacity:0.2;stroke:none;"/>
  </g>
</mask>
<clipPath id="clip1">
  <rect x="0" y="0" width="512" height="512"/>
</clipPath>
<g id="surface5" clip-path="url(#clip1)">
<path style=" stroke:none;fill-rule:nonzero;fill:rgb(0%,0%,0%);fill-opacity:1;" d="M 494.261719 246.773438 C 510.15625 299.953125 416.371094 368.679688 284.78125 400.28125 C 153.191406 431.882812 33.628906 414.394531 17.730469 361.214844 C 1.832031 308.039062 95.617188 239.3125 227.210938 207.710938 C 358.800781 176.109375 478.363281 193.597656 494.261719 246.773438 Z M 494.261719 246.773438 "/>
</g>
<mask id="mask1">
  <g filter="url(#alpha)">
<rect x="0" y="0" width="512" height="512" style="fill:rgb(0%,0%,0%);fill-opacity:0.1;stroke:none;"/>
  </g>
</mask>
<clipPath id="clip2">
  <rect x="0" y="0" width="512" height="512"/>
</clipPath>
<g id="surface8" clip-path="url(#clip2)">
<path style=" stroke:none;fill-rule:nonzero;fill:rgb(100%,100%,100%);fill-opacity:1;" d="M 240 112 C 128 112 154.0625 210.742188 96.71875 241.5625 C 65.695312 259.164062 60.570312 275.765625 63.75 292.28125 C 66.523438 280.972656 75.675781 269.46875 96.71875 257.53125 C 154.0625 226.710938 128 128 240 128 C 320 128 314.476562 195.464844 369.75 192.4375 C 403.089844 193.800781 412.535156 201.546875 414.65625 212.78125 C 416.285156 193.308594 417.167969 178.378906 369.75 176.4375 C 314.476562 179.464844 320 112 240 112 Z M 414.46875 230.875 C 413.824219 238.753906 413.355469 247.25 416 256 C 417.429688 260.785156 418.359375 264.957031 419.03125 268.875 C 420.886719 261.578125 419.707031 252.40625 416 240 C 415.066406 236.914062 414.75 233.894531 414.46875 230.875 Z M 414.46875 230.875 "/>
</g>
<mask id="mask2">
  <g filter="url(#alpha)">
<rect x="0" y="0" width="512" height="512" style="fill:rgb(0%,0%,0%);fill-opacity:0.2;stroke:none;"/>
  </g>
</mask>
<clipPath id="clip3">
  <rect x="0" y="0" width="512" height="512"/>
</clipPath>
<g id="surface11" clip-path="url(#clip3)">
<path style=" stroke:none;fill-rule:nonzero;fill:rgb(0%,0%,0%);fill-opacity:1;" d="M 383.46875 349.367188 C 389.460938 376.574219 344.410156 410.554688 282.847656 425.265625 C 221.285156 439.972656 166.519531 429.835938 160.527344 402.628906 C 154.535156 375.417969 199.585938 341.4375 261.148438 326.730469 C 322.710938 312.019531 377.476562 322.15625 383.46875 349.367188 Z M 383.46875 349.367188 "/>
</g>
<mask id="mask3">
  <g filter="url(#alpha)">
<rect x="0" y="0" width="512" height="512" style="fill:rgb(0%,0%,0%);fill-opacity:0.1;stroke:none;"/>
  </g>
</mask>
<clipPath id="clip4">
  <rect x="0" y="0" width="512" height="512"/>
</clipPath>
<g id="surface14" clip-path="url(#clip4)">
<path style=" stroke:none;fill-rule:nonzero;fill:rgb(100%,100%,100%);fill-opacity:1;" d="M 344.96875 176.0625 C 307.625 176.746094 267.132812 182.128906 227.21875 191.71875 C 100.285156 222.269531 7.792969 287.648438 16.90625 340.375 C 26.574219 290.207031 114.371094 234.828125 227.21875 207.71875 C 358.820312 176.113281 478.390625 193.601562 494.28125 246.78125 C 494.648438 248.375 494.917969 249.988281 495.09375 251.625 C 496.507812 244.367188 496.234375 237.382812 494.28125 230.78125 C 483.765625 195.5625 426.503906 174.574219 344.96875 176.0625 Z M 344.96875 176.0625 "/>
</g>
</defs>
<g id="surface1">
<use xlink:href="#surface5" mask="url(#mask0)"/>
<path style=" stroke:none;fill-rule:nonzero;fill:rgb(30.980393%,30.980393%,30.980393%);fill-opacity:1;" d="M 240 112 C 128 112 154.050781 210.734375 96.707031 241.554688 C 38.53125 274.558594 70.582031 304.105469 80 336 C 95.890625 389.179688 140.398438 351.605469 272 320 C 403.59375 288.402344 431.890625 293.175781 416 240 C 406.472656 208.460938 437.746094 179.234375 369.742188 176.449219 C 314.46875 179.476562 320 112 240 112 Z M 240 112 "/>
<use xlink:href="#surface8" mask="url(#mask1)"/>
<path style=" stroke:none;fill-rule:nonzero;fill:rgb(18.039216%,44.705883%,87.058824%);fill-opacity:1;" d="M 494.265625 230.785156 C 510.164062 283.964844 416.375 352.691406 284.785156 384.292969 C 153.195312 415.894531 33.632812 398.40625 17.734375 345.226562 C 1.835938 292.050781 95.625 223.324219 227.214844 191.722656 C 358.804688 160.121094 478.367188 177.609375 494.265625 230.785156 Z M 494.265625 230.785156 "/>
<use xlink:href="#surface11" mask="url(#mask2)"/>
<path style=" stroke:none;fill-rule:nonzero;fill:rgb(100%,100%,100%);fill-opacity:1;" d="M 383.46875 333.363281 C 389.457031 360.570312 344.410156 394.554688 282.84375 409.261719 C 221.28125 423.96875 166.515625 413.835938 160.523438 386.625 C 154.53125 359.414062 199.582031 325.433594 261.148438 310.726562 C 322.710938 296.019531 377.476562 306.152344 383.46875 333.363281 Z M 383.46875 333.363281 "/>
<use xlink:href="#surface14" mask="url(#mask3)"/>
</g>
</svg>
